<?xml version="1.0" encoding="UTF-8"?>
<svg width="240px" height="50px" viewBox="0 0 240 50" version="1.1" xmlns="http://www.w3.org/2000/svg" xmlns:xlink="http://www.w3.org/1999/xlink">
    <title>Abracon-Logo</title>
    <defs>
        <polygon id="path-1" points="0.49753125 0.014196 21.7073529 0.014196 21.7073529 24.323156 0.49753125 24.323156"></polygon>
    </defs>
    <g id="Homepage" stroke="none" stroke-width="1" fill="none" fill-rule="evenodd">
        <g id="home" transform="translate(-56.000000, -36.000000)">
            <g id="Navigation" transform="translate(-1.000000, -2.000000)">
                <g id="Abracon-Logo" transform="translate(57.000000, 38.000000)">
                    <path d="M29,0 L26.5176711,4.2798323 L45.7860154,37.5004021 L41.2145232,37.5004021 L24.2324636,8.22030173 L21.7501346,12.4995979 L0,50 L12.3087752,50 L14.4997307,50 L29,25.0002681 L36.2498654,37.499866 L36.2530969,37.5004021 L26.718024,37.5004021 L21.7533661,37.499866 L29.0032315,50 L29.7006964,50 L58,50 L55.5176711,45.7207038 L31.4855604,45.7207038 L29.2003529,41.7796983 L53.2324636,41.7796983 L50.7501346,37.5004021 L50.7479803,37.5004021 L50.7501346,37.499866 L29,0 Z M24.2324636,16.7799663 L26.5176711,20.7204358 L12.0179404,45.7207038 L7.44698672,45.7207038 L24.2324636,16.7799663 Z" id="Fill-1" fill="#006FFF"></path>
                    <path d="M75.2379162,26.4310987 L81.4441461,26.4310987 L78.3061224,17.1264225 L75.2379162,26.4310987 Z M82.8544576,30.9607042 L73.8281418,30.9607042 L71.8528464,37 L66,37 L75.0612245,12 L81.9027927,12 L91,37 L84.8995704,37 L82.8544576,30.9607042 Z" id="Fill-2" fill="#08275E"></path>
                    <g id="Group-16" transform="translate(94.000000, 12.000000)">
                        <path d="M5.82745404,21.061196 L11.1124908,21.061196 C12.3492555,21.061196 13.2181893,20.862556 13.7208915,20.463716 C14.2225276,20.065916 14.4736121,19.331676 14.4736121,18.261516 L14.4736121,17.817956 C14.4736121,16.724916 14.2102665,15.968836 13.6857077,15.547116 C13.1606158,15.126436 12.2559651,14.915316 10.9733548,14.915316 L5.82745404,14.915316 L5.82745404,21.061196 Z M5.82745404,5.356156 L5.82745404,10.647676 L10.6929504,10.647676 C11.8364246,10.647676 12.6413879,10.443316 13.1078401,10.033556 C13.5742923,9.623796 13.8077849,8.974836 13.8077849,8.087196 L13.8077849,7.677436 C13.8077849,6.857916 13.5924173,6.266676 13.1606158,5.902676 C12.7282813,5.538676 11.9878217,5.356156 10.938171,5.356156 L5.82745404,5.356156 Z M0.402748162,1.054196 L11.8481526,1.054196 C14.4613511,1.054196 16.3687408,1.554956 17.5708548,2.556476 C18.7724357,3.557996 19.3732261,5.071716 19.3732261,7.097116 L19.3732261,7.473076 C19.3732261,9.976876 18.3459651,11.649716 16.2935754,12.491596 C17.4828952,12.878996 18.4110018,13.527436 19.0757629,14.437956 C19.7405239,15.348476 20.073171,16.554356 20.073171,18.056636 L20.073171,18.671276 C20.073171,21.015956 19.3433732,22.716876 17.8853768,23.775596 C16.4268474,24.833796 14.309421,25.363156 11.5330974,25.363156 L0.402748162,25.363156 L0.402748162,1.054196 Z" id="Fill-3" fill="#08275E"></path>
                        <path d="M38.3093732,8.8387 C38.3093732,8.20118 38.2395386,7.67234 38.0988033,7.25062 C37.9591342,6.83046 37.7368364,6.49974 37.4340423,6.26054 C37.1312482,6.02186 36.7287665,5.85702 36.2271305,5.7655 C35.7244283,5.67502 35.1007151,5.62926 34.3538585,5.62926 L30.1190055,5.62926 L30.1190055,12.38926 L34.3538585,12.38926 C35.1007151,12.38926 35.7244283,12.34402 36.2271305,12.2525 C36.7287665,12.16202 37.1312482,11.99146 37.4340423,11.74082 C37.7368364,11.4907 37.9591342,11.15478 38.0988033,10.73358 C38.2395386,10.31238 38.3093732,9.7721 38.3093732,9.1117 L38.3093732,8.8387 Z M43.9792996,9.4185 C43.9792996,11.1943 43.5997408,12.6113 42.8416893,13.6695 C42.0836379,14.72822 40.9806783,15.5077 39.5338768,16.00846 L45.1696857,25.36326 L38.833932,25.36326 L34.0745202,16.82746 L30.1190055,16.82746 L30.1190055,25.36326 L24.4837298,25.36326 L24.4837298,1.0543 L34.5292445,1.0543 C36.2090055,1.0543 37.6446121,1.19054 38.833932,1.46354 C40.024318,1.73706 40.9982702,2.16918 41.7563217,2.76094 C42.5143732,3.35374 43.0746489,4.12178 43.4371489,5.0661 C43.7985827,6.01042 43.9792996,7.15442 43.9792996,8.49706 L43.9792996,9.4185 Z" id="Fill-5" fill="#08275E"></path>
                        <path d="M56.7191489,15.086292 L62.8795165,15.086292 L59.764682,6.038812 L56.7191489,15.086292 Z M64.2788732,19.490692 L55.3197923,19.490692 L53.3590938,25.363052 L47.5494982,25.363052 L56.5437629,1.054092 L63.3347739,1.054092 L72.3647555,25.363052 L66.3094063,25.363052 L64.2788732,19.490692 Z" id="Fill-7" fill="#08275E"></path>
                        <path d="M80.6953787,14.710748 C80.6953787,15.940028 80.7716103,16.942068 80.9235404,17.715308 C81.0744044,18.489588 81.3612059,19.098508 81.7807463,19.542068 C82.2008199,19.986148 82.7722904,20.287748 83.4951581,20.446868 C84.2185588,20.605988 85.1402684,20.685548 86.2608199,20.685548 L87.4330809,20.685548 L88.7988529,20.685548 C89.300489,20.685548 89.8772904,20.680348 90.5308566,20.668908 C91.1833566,20.657468 91.9424743,20.640308 92.8066103,20.617428 L91.8614449,25.362948 C90.4135772,25.408708 89.2589081,25.431588 88.3963713,25.431588 L85.9452316,25.431588 C83.8688529,25.431588 82.1128603,25.243348 80.6783199,24.867908 C79.2432463,24.492468 78.0821801,23.884068 77.1951213,23.041148 C76.3080625,22.199788 75.6731544,21.090108 75.2877316,19.712628 C74.903375,18.336188 74.709864,16.634748 74.709864,14.608308 L74.709864,11.774828 C74.709864,9.771788 74.9145699,8.086988 75.3229154,6.721988 C75.731261,5.355948 76.3784301,4.246268 77.2649559,3.392428 C78.1520147,2.539108 79.313614,1.924988 80.7481544,1.549028 C82.1832279,1.173588 83.9162978,0.985868 85.9452316,0.985868 L87.1009669,0.985868 L88.5184485,0.985868 C89.0430074,0.985868 89.6384669,0.991588 90.3032279,1.003028 C90.9685221,1.014468 91.7324375,1.031628 92.5960404,1.053988 L91.650875,5.800028 C90.7872721,5.777148 89.8831544,5.760508 88.9385221,5.748548 C87.9933566,5.737628 87.077511,5.731388 86.1909853,5.731388 C85.047511,5.731388 84.1199375,5.811468 83.4082647,5.970068 C82.6965919,6.130228 82.1357831,6.426108 81.7285037,6.857708 C81.319625,7.290348 81.0456176,7.894068 80.9054154,8.667828 C80.7652132,9.441588 80.6953787,10.454548 80.6953787,11.706188 L80.6953787,14.710748 Z" id="Fill-9" fill="#08275E"></path>
                        <path d="M107.400807,21.266128 C108.497903,21.266128 109.389759,21.186568 110.078509,21.026928 C110.766726,20.868328 111.30941,20.554768 111.706028,20.087808 C112.102112,19.621888 112.376653,18.972928 112.528583,18.141968 C112.67998,17.311528 112.755678,16.225248 112.755678,14.881568 L112.755678,11.501568 C112.755678,10.181808 112.67998,9.100208 112.528583,8.257808 C112.376653,7.415928 112.102112,6.767488 111.706028,6.311968 C111.30941,5.856968 110.766726,5.543408 110.078509,5.373368 C109.389759,5.202288 108.497903,5.117008 107.400807,5.117008 C106.303178,5.117008 105.405991,5.197088 104.705513,5.356208 C104.005568,5.515328 103.45702,5.828888 103.060403,6.294808 C102.664318,6.761768 102.389778,7.410208 102.238381,8.241168 C102.08645,9.072128 102.010219,10.158928 102.010219,11.501568 L102.010219,14.881568 C102.010219,16.201848 102.08645,17.277208 102.238381,18.108168 C102.389778,18.939128 102.664318,19.587568 103.060403,20.054008 C103.45702,20.520448 104.005568,20.839728 104.705513,21.009768 C105.405991,21.180848 106.303178,21.266128 107.400807,21.266128 M107.400807,25.977848 C105.207149,25.977848 103.380789,25.761008 101.923325,25.328888 C100.464796,24.896768 99.2978658,24.231168 98.423068,23.331568 C97.5482702,22.433008 96.9293548,21.289008 96.567921,19.900608 C96.2064871,18.512208 96.0252371,16.861728 96.0252371,14.949688 L96.0252371,11.399128 C96.0252371,9.555208 96.2006232,7.945288 96.5508621,6.567808 C96.900568,5.190848 97.5130864,4.047368 98.3878842,3.136848 C99.2632151,2.226328 100.429612,1.544088 101.888142,1.088568 C103.346138,0.633048 105.184226,0.405288 107.400807,0.405288 C109.594465,0.405288 111.414428,0.622128 112.86123,1.054248 C114.308031,1.486888 115.469097,2.152488 116.343895,3.051568 C117.219226,3.950648 117.837075,5.088928 118.198509,6.465368 C118.561009,7.842848 118.74066,9.487088 118.74066,11.399128 L118.74066,14.949688 C118.74066,16.816488 118.566873,18.438368 118.216634,19.814808 C117.865862,21.192288 117.259208,22.336288 116.396138,23.246288 C115.532002,24.156808 114.372002,24.839568 112.914006,25.295088 C111.455476,25.750088 109.617388,25.977848 107.400807,25.977848" id="Fill-11" fill="#08275E"></path>
                        <g id="Group-15" transform="translate(123.143382, 1.040000)">
                            <mask id="mask-2" fill="white">
                                <use xlink:href="#path-1"></use>
                            </mask>
                            <g id="Clip-14"></g>
                            <polygon id="Fill-13" fill="#08275E" mask="url(#mask-2)" points="5.18710846 0.014196 16.2481563 15.411916 16.2481563 0.014196 21.7075129 0.014196 21.7075129 24.323156 16.9481011 24.323156 5.99207169 9.061676 5.99207169 24.323156 0.49753125 24.323156 0.49753125 0.014196"></polygon>
                        </g>
                    </g>
                </g>
            </g>
        </g>
    </g>
</svg>