<svg xmlns="http://www.w3.org/2000/svg" id="Layer_1" viewBox="0 0 72.8 72.8"><style>.st0{fill:#08275E}</style><path class="st0" d="M36.4 1.2c-13.9 0-25.2 10.9-25.2 24.4 0 8.7 3.5 13.9 6.1 17.7 1.6 2.3 2.5 3.7 2.5 5.2 0 3.2 1.7 6.1 4.7 8.4.1 1.9.4 6.4.4 6.4.1 1.3.7 4 5.2 5.5.5.8 1.2 1.5 2.1 2 .5.4 1.1.6 1.8.6h4.9c.6 0 1.3-.2 1.8-.6.8-.6 1.5-1.2 2.1-2 4.5-1.5 5.2-4.2 5.2-5.5 0 0 .3-4.6.4-6.4 3-2.2 4.7-5.2 4.7-8.4 0-1.4.9-2.8 2.5-5.2 2.6-3.8 6.1-9 6.1-17.7-.1-13.4-11.4-24.4-25.3-24.4zm13.8 38.6c-1.9 2.7-3.6 5.3-3.6 8.7 0 1.5-1.4 2.7-2.4 3.4H39V34.5c0-1-.3-1.6-.8-2L31 25.3c-1-1-2.7-1-3.7 0s-1 2.7 0 3.7l6.4 6.4V52h-5.2c-1-.7-2.4-1.9-2.4-3.4 0-3.4-1.8-6-3.6-8.8-2.3-3.5-5-7.4-5-14.1 0-9.9 8.4-18 18.8-18s18.8 8.1 18.8 18c.1 6.7-2.5 10.6-4.9 14.1z"/><path class="st0" d="M41.8 25.2l-1.4 1.4c-1 1-1 2.7 0 3.7.5.5 1.2.8 1.8.8.7 0 1.3-.2 1.9-.8l1.4-1.4c1-1 1-2.7 0-3.7s-2.7-1-3.7 0z"/></svg>