<svg width="11" height="11" viewBox="0 0 11 11" xmlns="http://www.w3.org/2000/svg"><title>linkedin-share</title><path d="M11 11H8.569V7.133c0-1.012-.38-1.703-1.217-1.703-.64 0-.995.466-1.16.916-.063.16-.053.385-.053.61V11H3.73s.032-6.85 0-7.473h2.41V4.7c.142-.513.912-1.244 2.14-1.244C9.803 3.456 11 4.53 11 6.845V11zM1.295 2.592h-.016C.503 2.592 0 2.021 0 1.297 0 .56.518 0 1.31 0c.79 0 1.277.558 1.293 1.295 0 .724-.502 1.297-1.308 1.297zM.277 11h2.144V3.527H.277V11z" fill="#006EFC" fill-rule="evenodd"/></svg>
