<svg xmlns="http://www.w3.org/2000/svg" width="33" height="33" viewBox="0 0 33 33"><title>Fill 1</title><path d="M22.756 23.796a25.643 25.643 0 0 0-10.263 8.71 16.5 16.5 0 0 0 10.97-1.048c.34-1.664.52-3.383.52-5.145 0-.637-.029-1.268-.077-1.891a3.51 3.51 0 0 1-1.15-.626m4.82-19.526c-2.645.256-5.17.92-7.52 1.916a3.502 3.502 0 0 1-.341 1.895 28.146 28.146 0 0 1 5.323 9.489c1.427.026 2.648.9 3.174 2.142a25.347 25.347 0 0 0 4.623-.904 16.458 16.458 0 0 0-5.26-14.538M20.99 21.922a28.025 28.025 0 0 1-11.137-4.456 3.477 3.477 0 0 1-1.83.519 3.47 3.47 0 0 1-.72-.073 25.5 25.5 0 0 0-2.869 9.837 16.53 16.53 0 0 0 5.642 3.953 28.062 28.062 0 0 1 10.914-9.78m5.376 2.378a28.242 28.242 0 0 1-.146 5.529 16.524 16.524 0 0 0 6.002-8.318 27.98 27.98 0 0 1-3.91.655 3.52 3.52 0 0 1-1.946 2.134m-4.554-4.739a3.54 3.54 0 0 1 .912-1.177 25.698 25.698 0 0 0-4.792-8.613c-.42.179-.883.277-1.37.277a3.495 3.495 0 0 1-2.04-.657 26.02 26.02 0 0 0-3.52 3.235 3.49 3.49 0 0 1 .37 2.9 25.53 25.53 0 0 0 10.44 4.035M16.562 3.03c.927 0 1.768.36 2.395.949a28.042 28.042 0 0 1 5.768-1.78A16.414 16.414 0 0 0 16.5 0c-2.042 0-3.999.375-5.804 1.053A28.311 28.311 0 0 1 14.78 3.52a3.478 3.478 0 0 1 1.783-.49M4.51 14.476c0-.494.104-.964.288-1.387a28.419 28.419 0 0 1-3.043-3.996A16.437 16.437 0 0 0 0 16.5c0 3.084.85 5.97 2.323 8.44a27.972 27.972 0 0 1 2.907-8.346 3.482 3.482 0 0 1-.719-2.118m3.512-3.51c.36 0 .708.054 1.035.154a28.394 28.394 0 0 1 4.093-3.765 3.486 3.486 0 0 1-.1-.817c0-.388.067-.762.185-1.112a25.757 25.757 0 0 0-5.399-2.968 16.58 16.58 0 0 0-4.63 4.271A25.875 25.875 0 0 0 6.5 11.316a3.48 3.48 0 0 1 1.522-.35" fill="#1D3D72" fill-rule="evenodd"/></svg>