<svg xmlns="http://www.w3.org/2000/svg" id="Layer_1" viewBox="0 0 72.8 72.8"><style>.st0{fill:#08275E}</style><path class="st0" d="M61.7 9.2H11.1c-5.4 0-9.8 4.4-9.8 9.8v34.8c0 5.4 4.4 9.8 9.8 9.8h50.5c5.4 0 9.8-4.4 9.8-9.8V19c.1-5.4-4.3-9.8-9.7-9.8zM19.6 55.4c-.7.7-1.5 1-2.4 1-.9 0-1.8-.3-2.4-1-.7-.7-1-1.5-1-2.4s.3-1.8 1-2.4c.7-.7 1.5-1 2.4-1 .9 0 1.7.3 2.4 1s1 1.5 1 2.4-.3 1.7-1 2.4zm11.2 0c-.7.7-1.5 1-2.4 1-.9 0-1.8-.3-2.4-1-.7-.7-1-1.5-1-2.4s.3-1.8 1-2.4c.7-.7 1.5-1 2.4-1 .9 0 1.7.3 2.4 1s1 1.5 1 2.4-.3 1.7-1 2.4zm26.8 0c-.7.7-1.5 1-2.4 1h-11c-.9 0-1.8-.3-2.4-1-.7-.7-1-1.5-1-2.4s.3-1.8 1-2.4c.7-.7 1.5-1 2.4-1h11c.9 0 1.7.3 2.4 1s1 1.5 1 2.4-.3 1.7-1 2.4zm3.8-14.1h-50v-21c0-1.5 1.2-2.7 2.7-2.7h44.6c1.5 0 2.7 1.2 2.7 2.7v21z"/></svg>