<?xml version="1.0" encoding="UTF-8"?>
<svg xmlns="http://www.w3.org/2000/svg" id="Layer_1" viewBox="0 0 72.8 72.8">
  <style>.st0{fill:#08275E}</style>
  <path class="st0" d="M36.4 4.1C18.5 4.1 4 18.6 4 36.4c0 17.8 14.5 32.3 32.3 32.3 17.8 0 32.3-14.5 32.3-32.3.1-17.8-14.4-32.3-32.2-32.3zm0 8.1c10.5 0 19.4 6.8 22.8 16.2H13.6c3.4-9.5 12.3-16.2 22.8-16.2zm0 28.3c-2.2 0-4-1.8-4-4s1.8-4 4-4 4 1.8 4 4c0 2.1-1.8 4-4 4zm-24.3-4.1c11 0 20 10.6 20.2 23.8-11.4-1.9-20.2-11.8-20.2-23.8zm28.4 23.9c.2-13.2 9.1-23.8 20.2-23.8-.1 11.9-8.8 21.8-20.2 23.8zm0 0"></path>
</svg>
