<svg width="21" height="17" viewBox="0 0 21 17" xmlns="http://www.w3.org/2000/svg"><title>tweeter</title><path d="M20.571 1.984a8.4 8.4 0 0 1-2.423.666A4.23 4.23 0 0 0 20.003.31a8.39 8.39 0 0 1-2.68 1.025A4.205 4.205 0 0 0 14.241 0a4.226 4.226 0 0 0-4.219 4.23c0 .333.035.655.109.964a11.97 11.97 0 0 1-8.7-4.42A4.23 4.23 0 0 0 .86 2.902c0 1.467.745 2.762 1.878 3.521a4.21 4.21 0 0 1-1.913-.528v.052a4.23 4.23 0 0 0 3.387 4.149 4.12 4.12 0 0 1-1.113.149c-.272 0-.538-.026-.794-.075a4.22 4.22 0 0 0 3.943 2.937 8.455 8.455 0 0 1-5.242 1.812c-.34 0-.677-.02-1.007-.058a11.941 11.941 0 0 0 6.47 1.9c7.763 0 12.008-6.447 12.008-12.039 0-.184-.004-.368-.012-.547a8.58 8.58 0 0 0 2.105-2.19" fill="#006EFC" fill-rule="evenodd"/></svg>
